<svg width="54" height="55" viewBox="0 0 54 55" fill="none" xmlns="http://www.w3.org/2000/svg">
<path d="M38.5554 1.5C37.023 1.5 35.5534 2.10873 34.4699 3.19227C33.3863 4.27582 32.7776 5.74542 32.7776 7.27778V24.6111C32.7776 26.1435 33.3863 27.6131 34.4699 28.6966C35.5534 29.7802 37.023 30.3889 38.5554 30.3889C39.3215 30.3889 40.0563 30.6933 40.5981 31.235C41.1399 31.7768 41.4443 32.5116 41.4443 33.2778V36.1667C41.4443 37.699 40.8355 39.1686 39.752 40.2522C38.6684 41.3357 37.1988 41.9444 35.6665 41.9444C34.9003 41.9444 34.1655 42.2488 33.6237 42.7906C33.082 43.3323 32.7776 44.0672 32.7776 44.8333V50.6111C32.7776 51.3773 33.082 52.1121 33.6237 52.6539C34.1655 53.1956 34.9003 53.5 35.6665 53.5C40.2636 53.5 44.6724 51.6738 47.923 48.4232C51.1736 45.1726 52.9998 40.7638 52.9998 36.1667V7.27778C52.9998 5.74542 52.3911 4.27582 51.3075 3.19227C50.224 2.10873 48.7544 1.5 47.222 1.5H38.5554Z" stroke="#0D3B66" stroke-width="2" stroke-linecap="round" stroke-linejoin="round"/>
<path d="M6.77778 1.5C5.24542 1.5 3.77582 2.10873 2.69227 3.19227C1.60873 4.27582 1 5.74542 1 7.27778V24.6111C1 26.1435 1.60873 27.6131 2.69227 28.6966C3.77582 29.7802 5.24542 30.3889 6.77778 30.3889C7.54396 30.3889 8.27876 30.6933 8.82053 31.235C9.3623 31.7768 9.66667 32.5116 9.66667 33.2778V36.1667C9.66667 37.699 9.05794 39.1686 7.97439 40.2522C6.89085 41.3357 5.42125 41.9444 3.88889 41.9444C3.12271 41.9444 2.38791 42.2488 1.84614 42.7906C1.30436 43.3323 1 44.0672 1 44.8333V50.6111C1 51.3773 1.30436 52.1121 1.84614 52.6539C2.38791 53.1956 3.12271 53.5 3.88889 53.5C8.48597 53.5 12.8948 51.6738 16.1454 48.4232C19.396 45.1726 21.2222 40.7638 21.2222 36.1667V7.27778C21.2222 5.74542 20.6135 4.27582 19.5299 3.19227C18.4464 2.10873 16.9768 1.5 15.4444 1.5H6.77778Z" stroke="#0D3B66" stroke-width="2" stroke-linecap="round" stroke-linejoin="round"/>
</svg>
