<?xml version="1.0" encoding="UTF-8"?>
<svg id="Layer_1" xmlns="http://www.w3.org/2000/svg" version="1.1" viewBox="0 0 500 500">
  <!-- Generator: Adobe Illustrator 29.5.1, SVG Export Plug-In . SVG Version: 2.1.0 Build 141)  -->
  <defs>
    <style>
      .st0 {
        fill: #263238;
      }

      .st1 {
        fill: #fff;
      }

      .st2 {
        fill: #e0e0e0;
      }

      .st3 {
        fill: #008c78;
      }

      .st4 {
        fill: #455a64;
      }

      .st5 {
        fill: #ebebeb;
      }

      .st6 {
        fill: #f5f5f5;
      }

      .st7 {
        fill: #fafafa;
      }
    </style>
  </defs>
  <g id="freepik--background-complete--inject-140">
    <path class="st5" d="M106.12,275.13s-9.08,2.4-1.44,22,13.3,29.5,13.3,29.5c0,0,1.25,4.5-2.46,4.8s-11.61-1.78-13.68,2.52.77,9.15,7.2,13.66,20.14,14.92,21.38,15.86,2.31,3.08-.19,3.69-20.73.68-20.18,9.33,20.52,18.28,22.68,19.38,2.6,2.1,2.3,3.31-6.44.67-11.63.9-11.16,1.41-10.42,6.37,12,16.38,41.5,22.29l13.86,1.85,8.75-11c17.28-24.65,17.56-40.67,14.67-44.77s-8-.84-11.95,2.57-8,8-9,7.38-1.44-1.71-.63-4,8.63-23,3.06-29.67-18.82,5.89-21.05,7.16-2.92-1-2.68-2.54,3-18.53,4.54-26.23.41-13.11-4.22-14.86c-4.46-1.68-8.74,5.28-11.64,7.62s-5.09-1.78-5.09-1.78c0,0-2.73-11.07-10.72-30.53s-16.41-14.78-16.41-14.78"/>
    <path class="st2" d="M168.73,433.93c-5.81-14.31-15.73-39.93-24.34-61.88s-16.43-41.8-22.17-56.14c-2.88-7.15-5.2-13-6.82-17l-1.85-4.62-.47-1.2c-.06-.14-.11-.28-.15-.42,0,0,.07.13.19.4s.29.68.51,1.19l1.93,4.59c1.66,4,4,9.77,6.94,16.93,5.81,14.31,13.68,34.15,22.3,56.1s18.47,47.58,24.22,61.92"/>
    <path class="st2" d="M112.77,337.31c.33.09.64.21.94.37.6.26,1.45.66,2.49,1.16,2.09,1,4.94,2.49,8.06,4.18l8,4.34,2.42,1.29c.31.14.6.32.87.52-.33-.09-.64-.21-.95-.36-.59-.26-1.44-.67-2.48-1.18-2.08-1-4.91-2.55-8-4.23l-8-4.28-2.42-1.29c-.33-.13-.65-.3-.93-.52Z"/>
    <path class="st2" d="M136.55,348.37c-.11-.05,2.67-6.06,6.21-13.42s6.49-13.29,6.6-13.24-2.67,6.07-6.21,13.43-6.49,13.29-6.6,13.23Z"/>
    <path class="st2" d="M148.26,382.67c.19-.29.41-.56.65-.8l1.88-2.09c1.58-1.76,3.75-4.21,6-7s4.3-5.37,5.73-7.26c.68-.88,1.24-1.63,1.7-2.23.19-.29.41-.55.66-.79-.14.32-.31.62-.52.89-.37.55-.9,1.35-1.59,2.32-1.37,1.93-3.33,4.56-5.64,7.35s-4.52,5.22-6.16,6.93c-.82.85-1.49,1.54-2,2-.21.25-.45.48-.71.68Z"/>
    <path class="st2" d="M124.55,377.4c.34,0,.67.03,1,.11l2.55.46c2.15.41,5.12,1,8.39,1.69s6.22,1.33,8.36,1.81l2.52.6c.32.06.63.15.92.28-.34,0-.67-.03-1-.11l-2.55-.47c-2.16-.41-5.12-1-8.39-1.68s-6.23-1.33-8.36-1.82l-2.53-.59c-.31-.05-.62-.15-.91-.28Z"/>
    <path class="st2" d="M131,409c.41.02.82.07,1.22.16l3.27.58c2.76.51,6.57,1.24,10.76,2.07s8,1.62,10.75,2.21l3.24.71c.4.07.8.18,1.18.32-.41,0-.81-.06-1.21-.15l-3.27-.58c-2.76-.51-6.57-1.24-10.77-2.08s-8-1.62-10.74-2.2l-3.25-.72c-.4-.07-.8-.18-1.18-.32Z"/>
    <path class="st2" d="M160.78,414.69c.23-.36.5-.69.79-1l2.28-2.73c1.93-2.31,4.57-5.51,7.39-9.13s5.29-6.94,7.06-9.37l2.1-2.88c.24-.35.51-.69.81-1-.19.39-.41.77-.67,1.12-.46.71-1.13,1.72-2,3-1.71,2.47-4.14,5.84-7,9.46s-5.51,6.79-7.49,9.06c-1,1.12-1.81,2-2.39,2.64-.27.3-.57.58-.88.83Z"/>
    <rect class="st5" x="337.83" y="304.44" width="97.12" height="149.35" rx="7.54" ry="7.54" transform="translate(-140.38 254.44) rotate(-31.14)"/>
    <path class="st1" d="M435.85,410.77c-4.87,2.95-11.21,1.39-14.16-3.49s-1.39-11.21,3.49-14.16,11.21-1.39,14.16,3.49h0c2.94,4.87,1.39,11.21-3.48,14.15h0Z"/>
    <path class="st1" d="M437,423.39c-.88,0-1.75-.1-2.6-.32-5.74-1.44-9.24-7.26-7.8-13,1.44-5.74,7.26-9.24,13-7.8,5.74,1.44,9.24,7.26,7.8,13-1.19,4.77-5.48,8.12-10.4,8.12ZM437,402.77c-5.42.01-9.8,4.41-9.79,9.83,0,1.78.49,3.53,1.41,5.05,2.8,4.58,8.75,6.07,13.38,3.35h0c4.64-2.8,6.12-8.83,3.32-13.47-1.35-2.23-3.52-3.83-6.05-4.45-.76-.2-1.55-.3-2.34-.31h.07Z"/>
    <path class="st1" d="M343,333.62l-7.1,4.28-.44-.72,6.45-3.9-1-1.67.65-.39,1.44,2.4Z"/>
    <path class="st1" d="M341,344.81l-.65.39-3-5,.51-.32,4.67,1.21c.75.31,1.61.27,2.33-.11.82-.5,1-1.38.33-2.46-.41-.77-1.15-1.3-2-1.46l.13-.79c1.08.23,2.01.92,2.53,1.9.87,1.44.69,2.8-.49,3.51-.9.5-1.98.56-2.93.18l-3.83-1,2.4,3.95Z"/>
    <path class="st1" d="M346.73,351.55l-.86-1.42-1.87,1.12-.44-.73,1.86-1.12-2.42-4,.53-.32,7,.92.49.81-6.77-.86,1.86,3.08,1.64-1,.43.71-1.64,1,.86,1.42-.67.39Z"/>
    <path class="st1" d="M353.3,362.42l-.86-1.42-1.86,1.13-.44-.73,1.86-1.13-2.42-4,.53-.32,7,.92.49.81-6.77-.86,1.86,3.08,1.65-1,.42.71-1.64,1,.88,1.39-.7.42Z"/>
    <path class="st1" d="M357.27,368.49c-1.2.73-2.66.45-3.7-1.28-.59-.91-.82-2.02-.63-3.09h.79c-.19.92-.01,1.89.5,2.68.73,1.2,1.7,1.49,2.56,1s1.14-1.46,0-3.27l-.91-1.51,3.78-1.78,2.34,3.88-.65.39-2-3.24-2.4,1.12.55.91c1.38,2.11,1.03,3.43-.23,4.19Z"/>
    <path class="st1" d="M361.54,375.48c-1.23.73-2.81.32-3.53-.9-.04-.06-.07-.13-.11-.2-1.14-1.89-.45-3.7,1.79-5.06,2.41-1.45,4.46-.89,5.62,1,.38.57.6,1.23.64,1.92l-.77.06c0-.56-.18-1.11-.5-1.58-.92-1.53-2.5-1.92-4.42-.76-.19.12-.38.24-.56.38,1.05-.07,2.04.5,2.52,1.44.86,1.08.67,2.65-.41,3.51-.09.07-.18.13-.27.19ZM361.08,374.78c.86-.52,1.13-1.64.61-2.5-.04-.07-.09-.14-.15-.21-.34-.95-1.38-1.44-2.33-1.1-.95.34-1.44,1.38-1.1,2.33.09.25.24.48.43.68.42.91,1.5,1.3,2.4.88.05-.02.09-.05.14-.07h0Z"/>
    <path class="st1" d="M367.32,385.24c-1.18.72-2.61.41-3.65-1.31-.6-.91-.82-2.02-.63-3.1h.79c-.19.93,0,1.9.51,2.7.71,1.18,1.65,1.49,2.53,1s1.05-1.45.25-2.77l-.3-.5.53-.33,3.65.48-2.19-3.63.65-.39,2.76,4.56-.52.31-3.74-.48c.84,1.53.5,2.78-.64,3.46Z"/>
    <path class="st1" d="M371.7,392.31c-1.23.72-2.81.32-3.53-.91-.04-.07-.07-.13-.11-.2-1.14-1.88-.45-3.7,1.79-5.05,2.41-1.46,4.47-.9,5.63,1,.38.57.59,1.23.63,1.91l-.76.06c-.02-.56-.19-1.11-.5-1.58-.93-1.53-2.5-1.92-4.43-.75-.16.09-.36.23-.56.37,1.05-.06,2.04.5,2.53,1.44.86,1.09.67,2.67-.42,3.52-.09.07-.18.13-.27.19ZM371.25,391.6c.86-.53,1.12-1.65.6-2.5-.04-.07-.09-.14-.15-.21-.33-.96-1.37-1.47-2.32-1.14s-1.47,1.37-1.14,2.32c.09.28.25.53.46.73.43.91,1.52,1.3,2.42.87.04-.02.08-.04.13-.07Z"/>
    <path class="st1" d="M380.62,395.83l-.51.31-8.38,1-.47-.79,8.21-1-2.21-3.65-1.32.8-.44-.72,2-1.19,3.12,5.24Z"/>
    <path class="st1" d="M386.75,406l-.51.31-8.38,1-.47-.79,8.21-1-2.21-3.65-1.33.81-.43-.72,2-1.2,3.12,5.24Z"/>
    <path class="st1" d="M385.85,416.05c-1.25.76-2.68.16-3.7-1.53s-.87-3.21.38-4c.83-.51,1.9-.38,2.58.32-.2-.81.16-1.65.88-2.06,1.16-.7,2.47-.15,3.38,1.35s.79,2.94-.36,3.64c-.71.44-1.62.36-2.25-.19.31.93-.06,1.96-.91,2.47ZM385.41,415.29c.87-.53,1-1.61.21-2.86s-1.76-1.67-2.63-1.14-1,1.6-.22,2.86,1.76,1.67,2.64,1.14h0ZM386.19,412.08c.67,1.1,1.57,1.46,2.34,1s.86-1.48.22-2.55-1.55-1.45-2.34-1-.88,1.47-.22,2.55Z"/>
    <path class="st1" d="M391.65,422c-2.41,1.46-4.47.9-5.63-1-.37-.57-.59-1.24-.63-1.92l.76-.06c.02.56.19,1.11.5,1.58.93,1.53,2.5,1.92,4.43.76.16-.1.36-.23.56-.38-1.05.06-2.05-.5-2.53-1.44-.84-1.09-.64-2.66.45-3.51.08-.06.16-.11.24-.16,1.22-.73,2.8-.33,3.53.89.04.07.08.14.11.21,1.14,1.82.45,3.63-1.79,5.03ZM392.45,420.15c.87-.61,1.09-1.81.47-2.69-.03-.04-.06-.08-.08-.11-.37-.93-1.42-1.38-2.35-1.01-.93.37-1.38,1.42-1.01,2.35.08.21.21.4.36.57.47.95,1.61,1.33,2.56.87.02,0,.03-.02.05-.03v.05Z"/>
    <path class="st1" d="M399.48,427l-7.09,4.29-.44-.73,6.44-3.9-1-1.67.65-.39,1.44,2.4Z"/>
    <path class="st1" d="M397.45,438.23l-.65.4-3-5,.52-.31,4.67,1.2c.75.31,1.61.27,2.33-.11.82-.49,1-1.38.32-2.46-.4-.77-1.14-1.31-2-1.46l.13-.78c1.09.22,2.02.92,2.54,1.9.87,1.44.69,2.79-.5,3.51-.9.49-1.97.56-2.92.17l-3.83-1,2.39,3.94Z"/>
    <path class="st1" d="M402.68,443.76c-1.19.72-2.62.41-3.65-1.31-.6-.91-.82-2.02-.63-3.1h.79c-.19.93,0,1.9.51,2.7.71,1.17,1.65,1.49,2.53,1s1-1.45.25-2.77l-.31-.51.54-.32,3.65.48-2.19-3.63.65-.39,2.75,4.56-.51.31-3.74-.48c.84,1.53.5,2.77-.64,3.46Z"/>
    <rect class="st1" x="379" y="390.26" width="3.62" height="66.74" transform="translate(-164.26 258.16) rotate(-31.16)"/>
    <rect class="st1" x="378.45" y="423.5" width="3.6" height="34.06" transform="translate(-173.02 260.12) rotate(-31.14)"/>
    <rect class="st2" x="352.21" y="318.14" width="20.82" height="27.86" rx="4.96" ry="4.96" transform="translate(-119.47 235.37) rotate(-31.14)"/>
    <path class="st5" d="M351.43,322.54l1.14-.69,7.43,12.28c.86,1.42,2.7,1.88,4.12,1.02,1.42-.86,1.88-2.7,1.02-4.12l-7.42-12.28,1.14-.69,7.42,12.28c1.24,2.05.58,4.71-1.47,5.95s-4.71.58-5.95-1.47l-7.43-12.28Z"/>
    <rect class="st5" x="368.9" y="334.88" width="1.35" height="9.9" transform="translate(-122.52 240.25) rotate(-31.16)"/>
    <rect class="st1" x="393.52" y="305.16" width="6.15" height="71.66" transform="translate(-119.19 254.23) rotate(-31.14)"/>
    <path class="st6" d="M209.3,33.61c-.76,10.8,0,30.92-3.93,41s-9.18,20.48-19,25c-12.12,5.56-26.36,3.2-39.29,6.46-20.26,5.1-34.92,23.69-41.17,43.63s-5.56,41.3-4.81,62.18l103.4,14.34s.54-42,9.56-53.49,51.87-21.8,66-53.21c12.74-28.27,16.58-73.1,16.58-73.1l-87.34-12.81Z"/>
    <path class="st2" d="M234.56,62l-1.34-2.47c-.19.01-.37.01-.56,0l-1.9-.23-.28,2.24-.74-.09.87-7.07,2.64.33c1.8.22,2.77,1.27,2.59,2.78-.09,1.03-.87,1.85-1.89,2l1.42,2.63-.81-.12ZM235.09,57.36c.14-1.13-.53-1.87-1.94-2l-1.88-.23-.43,3.54,1.87.23c1.42.1,2.29-.42,2.38-1.53h0Z"/>
    <path class="st2" d="M242.1,62.29l-.08.64-5-.61.87-7.06,4.84.59-.08.65-4.08-.5-.31,2.52,3.65.45-.08.63-3.65-.45-.33,2.62,4.25.52Z"/>
    <path class="st2" d="M243.54,59.54c.22-1.97,1.98-3.38,3.95-3.17.07,0,.13.02.2.03.97.08,1.86.57,2.45,1.35l-.53.42c-.48-.64-1.21-1.04-2-1.1-1.61-.27-3.13.82-3.39,2.43-.27,1.61.82,3.13,2.43,3.39.08.01.15.02.23.03.78.13,1.58-.09,2.2-.59l.41.54c-.77.61-1.75.87-2.72.71-1.97-.18-3.42-1.91-3.25-3.88,0-.05.01-.1.02-.16Z"/>
    <path class="st2" d="M256.06,64l-.08.65-4.98-.65.87-7.06,4.84.6-.08.64-4.1-.5-.31,2.51,3.65.45-.07.64-3.65-.45-.33,2.62,4.24.55Z"/>
    <path class="st2" d="M258.61,57.81l.74.1-.87,7.09-.75-.1.88-7.09Z"/>
    <path class="st2" d="M266.88,61.29c-.19,1.51-1.39,2.28-3.18,2.06l-1.9-.24-.27,2.23-.75-.09.87-7.06,2.64.33c1.8.22,2.78,1.26,2.59,2.77ZM266.13,61.2c.14-1.13-.52-1.86-1.94-2l-1.87-.23-.44,3.53,1.88.23c1.41.14,2.24-.42,2.37-1.53Z"/>
    <path class="st2" d="M269.85,59.86l-2.48-.31.08-.64,5.71.7-.08.65-2.48-.26-.79,6.42-.75-.1.79-6.46Z"/>
    <path class="st2" d="M258.68,79.25c0,.15-9.45-1-21.05-2.6s-21-3-21-3.12,9.44,1,21,2.6,21.06,2.98,21.05,3.12Z"/>
    <path class="st2" d="M257.54,87.67c0,.15-9.44-1-21-2.6s-21-3-21-3.12,9.44,1,21,2.6,21.02,2.98,21,3.12Z"/>
    <path class="st2" d="M253.69,96.26c0,.14-9.44-1-21-2.6s-21-3-21-3.13,9.43,1,21,2.61,21.02,2.98,21,3.12Z"/>
    <path class="st2" d="M246.68,104.92c0,.15-9.44-1-21.05-2.6s-21-3-21-3.12,9.44,1,21.05,2.6,21.02,2.98,21,3.12Z"/>
    <path class="st2" d="M235.51,113.57c0,.14-9.44-1-21-2.61s-21-3-21-3.12,9.44,1,21,2.61,21.02,2.97,21,3.12Z"/>
    <path class="st2" d="M277.51,82.06c-3.47-.22-6.9-.78-10.26-1.67,1.74.02,3.48.22,5.18.58,1.73.19,3.43.56,5.08,1.09Z"/>
    <path class="st2" d="M277.15,89.57c-1.73-.02-3.46-.21-5.15-.57-1.73-.19-3.43-.56-5.08-1.09,1.74.01,3.47.21,5.17.58,1.72.19,3.41.56,5.06,1.08Z"/>
    <path class="st2" d="M274.6,100c-1.74-.03-3.48-.23-5.18-.6-1.72-.22-3.42-.58-5.08-1.07,0-.18,2.34.09,5.17.55,1.73.2,3.44.58,5.09,1.12Z"/>
    <path class="st2" d="M270.92,108.75c-1.74-.03-3.48-.23-5.18-.6-1.72-.22-3.42-.58-5.08-1.07,0-.18,2.34.09,5.17.55,1.73.2,3.44.58,5.09,1.12Z"/>
    <path class="st2" d="M263,117.1c-1.74-.03-3.48-.23-5.18-.6-1.72-.21-3.42-.57-5.08-1.07,0-.18,2.34.09,5.16.56,1.73.2,3.44.57,5.1,1.11Z"/>
    <path class="st2" d="M226,124.13c0,.14-14.16-1.74-31.58-4.21s-31.54-4.58-31.52-4.72,14.16,1.74,31.59,4.21,31.51,4.59,31.51,4.72Z"/>
    <path class="st2" d="M218.66,133c-.23,0-.47-.03-.7-.06l-2-.26-7.3-1.07-24.06-3.7c-9.39-1.48-17.88-2.86-24-3.89l-7.27-1.25c-.86-.16-1.52-.28-2-.38-.23-.03-.46-.09-.68-.18.24,0,.47.03.7.08l2,.28,7.3,1.09,24.06,3.73,24,3.86,7.27,1.23,2,.36c.23.02.46.08.68.16Z"/>
    <path class="st2" d="M205.46,141.06c-.87.02-1.74-.06-2.6-.23-1.69-.22-4.14-.56-7.17-1-6.05-.87-14.4-2.14-23.61-3.58s-17.56-2.79-23.59-3.79l-7.14-1.2-1.93-.36c-.23-.03-.45-.08-.67-.16.23,0,.46.01.68.06l1.95.25,7.17,1,23.61,3.63,23.59,3.74,9.71,1.64Z"/>
    <path class="st2" d="M249.79,129c-1.74-.03-3.48-.23-5.18-.6-1.72-.22-3.42-.58-5.08-1.07,0-.18,2.34.09,5.17.55,1.73.2,3.44.57,5.09,1.12Z"/>
    <path class="st2" d="M239.6,134.66c-1.74-.03-3.48-.23-5.18-.6-1.72-.22-3.42-.58-5.08-1.07,0-.18,2.34.09,5.17.55,1.73.2,3.44.57,5.09,1.12Z"/>
    <path class="st2" d="M225.88,144.21c-1.74-.03-3.48-.23-5.18-.6-1.72-.21-3.42-.57-5.08-1.07,0-.18,2.34.09,5.17.56,1.73.2,3.43.57,5.09,1.11Z"/>
    <path class="st2" d="M199.66,159.29c0,.15-17.51-2.43-39-5.74s-39-6.12-39-6.26,17.5,2.43,39,5.75,39.02,6.11,39,6.25Z"/>
    <path class="st2" d="M189.19,178.22c0,.14-5.76-.67-12.8-1.81s-12.74-2.18-12.72-2.32,5.76.67,12.8,1.81,12.74,2.17,12.72,2.32Z"/>
  </g>
  <g id="freepik--Floor--inject-140">
    <path class="st0" d="M465.41,463.75c0,.15-96.45.26-215.4.26s-215.42-.11-215.42-.26,96.43-.26,215.42-.26,215.4.12,215.4.26Z"/>
  </g>
  <g id="freepik--Icons--inject-140">
    <rect class="st3" x="321.5" y="111.81" width="114.62" height="108.71" rx="6.79" ry="6.79" transform="translate(-19.52 54.62) rotate(-8.04)"/>
    <path class="st5" d="M400.11,179.71c-.25.08-.5.13-.76.16l-2.19.36-8.16,1.25-27.29,4h-.22l-.06-.22c-.41-1.42-.85-2.91-1.29-4.43-3.71-13-7-24.57-9.19-32.14l.18.11-7.28,1-1.94.24c-.23.02-.45.02-.68,0,.22-.07.44-.11.66-.14l1.93-.32,7.26-1.12h.14v.13l9.38,32.09,1.28,4.44-.28-.19,27.4-3.8,8.14-1.09,2.21-.27c.25-.04.51-.06.76-.06Z"/>
    <path class="st5" d="M359.46,177.43h.19l.56-.11,2.19-.35,8.21-1.26,28.32-4.16-.22.24c.16-4.89.33-10.18.5-15.65.09-2.81.18-5.58.27-8.22l.29.27-33.41,4.71-9.89,1.34-2.67.34-.7.08h-.24c.08-.03.16-.05.24-.06l.68-.12,2.66-.43,9.88-1.5,33.38-4.88h.3v.31c-.08,2.64-.17,5.4-.26,8.22-.18,5.47-.36,10.76-.52,15.65v.15h-.21l-28.35,4-8.22,1.11-2.2.28-.57.06-.21-.02Z"/>
    <path class="st5" d="M372.81,194.27s-.1-.34-.35-.88c-.35-.77-.95-1.39-1.69-1.79-1.78-.96-4.01-.3-4.97,1.48-.37.69-.52,1.48-.41,2.26.24,1.49,1.37,2.68,2.84,3,1.22.25,2.49-.12,3.37-1,.61-.59,1-1.36,1.12-2.2.09-.59,0-.94.09-.94.12.32.17.66.12,1-.06.91-.44,1.78-1.07,2.44-.96,1.01-2.37,1.45-3.73,1.18-2.22-.44-3.67-2.59-3.23-4.81.24-1.22,1.02-2.27,2.13-2.85,1.23-.64,2.71-.61,3.91.08.79.45,1.39,1.15,1.71,2,.14.32.2.68.16,1.03Z"/>
    <path class="st5" d="M397.52,190.72s-.1-.34-.35-.88c-.35-.77-.95-1.4-1.7-1.79-1.78-.95-3.99-.29-4.94,1.49-.95,1.78-.29,3.99,1.49,4.94,1.41.76,3.15.51,4.29-.62.61-.59,1-1.36,1.12-2.2.09-.59,0-.94.09-.94.12.32.16.66.11,1-.05.91-.43,1.78-1.06,2.44-.96,1.01-2.37,1.45-3.73,1.18-2.22-.44-3.67-2.59-3.23-4.81.24-1.22,1.02-2.27,2.13-2.85,1.23-.64,2.71-.61,3.91.08.79.45,1.39,1.15,1.71,2,.13.3.18.63.16.96Z"/>
    <circle class="st7" cx="397.08" cy="144.3" r="11.07"/>
    <path class="st3" d="M402.44,139.36c-.32.71-.71,1.38-1.17,2-.78,1.18-1.88,2.78-3.12,4.54l-1.33,1.87-.14.2-.2-.13c-1.57-.95-3.07-2.01-4.48-3.19,1.65.8,3.24,1.73,4.75,2.77l-.34.06,1.32-1.88c1.24-1.76,2.39-3.33,3.24-4.46.42-.65.91-1.24,1.47-1.78Z"/>
    <rect class="st4" x="336.99" y="237.84" width="88.07" height="92.86" rx="6.79" ry="6.79" transform="translate(12.24 584.24) rotate(-75.85)"/>
    <path class="st7" d="M360.41,272.12l.7,19.1,35,8.83,9.89-15.68s-3.39-2.1-5.86-2.19l4.12-19.1c.31-1.45-.61-2.88-2.06-3.2-.33-.07-.67-.08-1.01-.02l-3.77.63-19.75-5-2-1.71c-1.1-.96-2.77-.84-3.72.26-.28.32-.48.71-.58,1.12l-4.62,18.84c-1.95-1.08-4.12-1.72-6.34-1.88Z"/>
    <path class="st2" d="M370.15,284.44c1.42,2.63,3.64,4.73,6.34,6,2.69,1.25,5.61,1.93,8.58,2,1.61.06,3.4-.08,4.53-1.22s1.27-3,1.3-4.68c.13-2.13-.05-4.28-.52-6.36-.48-2.12-1.83-3.94-3.73-5-2.6-1.26-5.75-.37-8.26,1.05-3.32,1.88-6.07,4.6-8,7.89"/>
    <rect class="st0" x="351.62" y="298.58" width="16.7" height="1.91" transform="translate(-18.48 575.36) rotate(-75.85)"/>
    <rect class="st0" x="363.16" y="296.27" width="8.53" height="1.91" transform="translate(-10.6 580.84) rotate(-75.85)"/>
    <rect class="st0" x="381.74" y="300.96" width="8.53" height="1.91" transform="translate(-1.11 602.4) rotate(-75.85)"/>
    <rect class="st0" x="384.83" y="306.97" width="16.7" height="1.91" transform="translate(-1.52 613.9) rotate(-75.85)"/>
    <path class="st0" d="M371.08,282.78c-.14,0,1.28-6.13,3.17-13.61s3.52-13.52,3.66-13.48-1.27,6.12-3.16,13.61-3.53,13.51-3.67,13.48Z"/>
    <path class="st0" d="M390.87,287.77c-.14,0,1.27-6.13,3.16-13.61s3.53-13.52,3.67-13.49-1.28,6.13-3.17,13.61-3.53,13.52-3.66,13.49Z"/>
    <path class="st0" d="M400.1,282.18c-.33.03-.67.03-1,0h-.52l-.63.07-.72.09-.79.21c-1.33.38-2.52,1.12-3.44,2.15-1.18,1.32-1.95,2.95-2.21,4.7v.27l-.25-.07-9.37-2.33-10.49-2.68h-.22v-.22c.37-1.59.34-3.25-.09-4.82-.33-1.22-.87-2.37-1.61-3.4-.67-.89-1.44-1.69-2.3-2.4.27.13.52.28.75.47.67.51,1.26,1.1,1.77,1.77.8,1.03,1.39,2.21,1.75,3.46.48,1.63.54,3.34.18,5l-.17-.27,10.51,2.61,9.35,2.39-.29.2c.29-1.84,1.12-3.55,2.39-4.92,1-1.04,2.28-1.78,3.68-2.12l.83-.18.74-.05.64-.05h.54c.33,0,.65.04.97.12Z"/>
    <path class="st0" d="M370.28,284.39c0,.08-.71,0-1.79.24-2.86.5-5.27,2.44-6.36,5.13-.42,1-.52,1.71-.61,1.69-.07-.62.03-1.25.27-1.82.47-1.44,1.35-2.71,2.53-3.66,1.18-.95,2.61-1.54,4.12-1.71.61-.12,1.25-.07,1.84.13Z"/>
    <path class="st0" d="M395.69,300.33c-.08,0,.09-.77.09-2,0-1.59-.37-3.15-1.07-4.57-.71-1.41-1.74-2.64-3-3.59-1-.73-1.68-1-1.65-1.12.67.13,1.31.41,1.86.82,2.85,1.84,4.48,5.08,4.25,8.47,0,.69-.17,1.37-.48,1.99Z"/>
  </g>
  <g id="freepik--Device--inject-140">
    <path class="st0" d="M320.67,465.1l-125.83-.58c-15.13-.07-27.34-12.39-27.28-27.52l1.33-315.46c.07-15.14,12.4-27.36,27.54-27.29l125.83.58c15.13.07,27.35,12.39,27.28,27.52h0s-1.33,315.45-1.33,315.45c-.07,15.14-12.4,27.37-27.54,27.3h0Z"/>
    <path class="st7" d="M321,103.68l-24.4-.12c-3.34.07-6.01,2.83-5.95,6.17v4.42c.06,3.35-2.6,6.11-5.95,6.17,0,0,0,0,0,0l-47.55-.22c-3.34-.09-5.98-2.87-5.9-6.22v-4.43c.08-3.35-2.56-6.13-5.9-6.22h-8.58l-21.35-.09c-10.6-.05-19.24,8.51-19.29,19.11h0s-1.3,307.91-1.3,307.91c-.02,10.6,8.56,19.22,19.16,19.24,0,0,0,0,.01,0l125.58.58c10.6.05,19.23-8.5,19.28-19.1,0,0,0,0,0-.01l1.29-307.87c.07-10.6-8.46-19.25-19.06-19.32-.03,0-.06,0-.09,0Z"/>
    <path class="st0" d="M192.44,136.41c-.14,0-.27-.06-.36-.16l-1.91-2c-.09-.09-.15-.22-.14-.35,0-.13.05-.26.15-.35l1.92-1.83c.19-.19.5-.2.69,0,0,0,0,0,0,0,.2.19.2.51,0,.71,0,0,0,0,0,0l-1.56,1.48,1.57,1.64c.2.19.2.51,0,.71,0,0,0,0,0,0-.1.1-.23.15-.37.15Z"/>
    <rect class="st3" x="191.08" y="396.62" width="136.06" height="35.13" rx="16.12" ry="16.12"/>
    <path class="st7" d="M242.93,410.11h3.16c2.15-.11,3.97,1.54,4.08,3.69.11,2.15-1.54,3.97-3.69,4.08-.13,0-.26,0-.39,0h-3.16v-7.77ZM246.05,417.17c1.75.1,3.25-1.24,3.35-3s-1.24-3.25-3-3.35c-.12,0-.24,0-.36,0h-2.3v6.35h2.3Z"/>
    <path class="st7" d="M251.4,414c-.07-2.25,1.7-4.14,3.95-4.21,2.25-.07,4.14,1.7,4.21,3.95.07,2.25-1.7,4.14-3.95,4.21-.04,0-.08,0-.12,0-2.15.11-3.98-1.55-4.09-3.7,0-.08,0-.16,0-.25ZM258.74,414c.03-1.81-1.41-3.29-3.22-3.32-1.81-.03-3.29,1.41-3.32,3.22-.03,1.81,1.41,3.29,3.22,3.32.02,0,.05,0,.07,0,1.73.06,3.19-1.29,3.25-3.03,0-.06,0-.13,0-.19Z"/>
    <path class="st7" d="M267.88,410.11v7.77h-.67l-5-6.3v6.3h-.83v-7.77h.68l5,6.3v-6.3h.82Z"/>
    <path class="st7" d="M275.9,417.17v.71h-5.49v-7.77h5.32v.71h-4.5v2.76h4v.7h-4v2.89h4.67Z"/>
    <path class="st0" d="M207.41,291c0,1.41-1,2.27-2.71,2.27h-1.79v2.1h-.71v-6.65h2.5c1.69-.01,2.71.84,2.71,2.28ZM206.71,291c0-1.07-.7-1.68-2-1.68h-1.77v3.33h1.77c1.29,0,2-.65,2-1.65Z"/>
    <path class="st0" d="M213.4,290.36v5h-.65v-.91c-.37.64-1.06,1.02-1.8,1-1.07.1-2.01-.68-2.11-1.75-.01-.13-.01-.27,0-.4v-2.9h.68v2.83c0,1.07.55,1.61,1.5,1.61.9.04,1.66-.65,1.71-1.55,0-.09,0-.18,0-.27v-2.62l.68-.04Z"/>
    <path class="st0" d="M217.81,290.32v.68h-.16c-.89-.05-1.66.64-1.7,1.53,0,.1,0,.21.01.31v2.55h-.67v-5h.64v1c.34-.71,1.09-1.14,1.88-1.07Z"/>
    <path class="st0" d="M218.47,292.86c-.04-1.36,1.03-2.5,2.4-2.54.06,0,.12,0,.18,0,.8-.06,1.57.32,2,1l-.51.34c-.33-.48-.87-.76-1.45-.74-1.08.25-1.75,1.32-1.51,2.39.17.75.76,1.33,1.51,1.51.58.02,1.12-.26,1.45-.73l.51.34c-.44.67-1.2,1.05-2,1-1.37.06-2.52-1.01-2.58-2.38,0-.06,0-.13,0-.19Z"/>
    <path class="st0" d="M228.86,292.46v2.9h-.68v-2.83c.11-.76-.42-1.48-1.18-1.59-.11-.02-.21-.02-.32-.01-.9-.07-1.69.61-1.75,1.52,0,.1,0,.2,0,.29v2.62h-.68v-7.05h.68v2.92c.42-.61,1.13-.96,1.87-.91,1.06-.08,1.98.7,2.07,1.76.01.13,0,.25,0,.38Z"/>
    <path class="st0" d="M234.47,292.26v3.1h-.65v-.78c-.38.57-1.04.89-1.72.83-1.13,0-1.83-.59-1.83-1.46s.5-1.41,1.93-1.41h1.59v-.31c0-.85-.48-1.32-1.42-1.32-.61,0-1.19.2-1.66.59l-.3-.5c.57-.45,1.27-.69,2-.68.97-.16,1.89.5,2.05,1.47.03.16.03.32.01.47ZM233.79,293.86v-.86h-1.57c-1,0-1.28.38-1.28.89s.46.95,1.26.95c.68.04,1.32-.35,1.59-.98h0Z"/>
    <path class="st0" d="M235.61,294.79l.3-.53c.52.37,1.14.56,1.78.56.95,0,1.34-.33,1.34-.82,0-1.3-3.24-.28-3.24-2.25,0-.82.7-1.43,2-1.43.62-.01,1.23.15,1.76.47l-.29.54c-.43-.29-.95-.44-1.47-.43-.91,0-1.31.35-1.31.83,0,1.35,3.24.33,3.24,2.25,0,.87-.76,1.43-2.06,1.43-.73.02-1.45-.2-2.05-.62Z"/>
    <path class="st0" d="M245.3,293.07h-4.18c.06,1.03.95,1.81,1.97,1.74,0,0,.02,0,.03,0,.58.01,1.14-.23,1.53-.66l.38.44c-1.01,1.06-2.68,1.1-3.73.09-.5-.48-.79-1.13-.82-1.82-.07-1.33.95-2.46,2.28-2.54.05,0,.11,0,.16,0,1.31-.03,2.4,1.02,2.42,2.33,0,.07,0,.14,0,.21-.03.06-.04.14-.04.21ZM241.12,292.56h3.55c-.07-.98-.93-1.72-1.91-1.64-.88.07-1.58.76-1.64,1.64Z"/>
    <path class="st0" d="M256.52,290.36l-1.89,5h-.63l-1.57-4.1-1.58,4.1h-.64l-1.88-5h.67l1.56,4.25,1.61-4.25h.58l1.6,4.25,1.59-4.25h.58Z"/>
    <path class="st0" d="M261.16,292.26v3.1h-.64v-.78c-.38.57-1.04.88-1.72.83-1.13,0-1.83-.59-1.83-1.46s.5-1.41,1.93-1.41h1.59v-.31c0-.85-.48-1.32-1.42-1.32-.61,0-1.19.2-1.66.59l-.3-.5c.57-.45,1.27-.69,2-.68.97-.15,1.88.51,2.04,1.48.02.15.03.31.01.46ZM260.49,293.86v-.86h-1.57c-1,0-1.28.38-1.28.89s.46.95,1.26.95c.68.04,1.32-.35,1.59-.98h0Z"/>
    <path class="st0" d="M262.31,294.79l.3-.53c.52.37,1.14.56,1.78.56.95,0,1.34-.33,1.34-.82,0-1.3-3.24-.28-3.24-2.25,0-.82.7-1.43,2-1.43.62-.01,1.24.15,1.77.47l-.29.54c-.44-.29-.95-.44-1.48-.43-.9,0-1.3.35-1.3.83,0,1.35,3.24.33,3.24,2.25,0,.87-.76,1.43-2.06,1.43-.74.03-1.46-.19-2.06-.62Z"/>
    <path class="st0" d="M269.45,294.79l.3-.53c.52.37,1.14.56,1.78.56,1,0,1.34-.33,1.34-.82,0-1.3-3.24-.28-3.24-2.25,0-.82.7-1.43,2-1.43.62-.01,1.23.15,1.76.47l-.29.54c-.43-.29-.95-.44-1.47-.43-.91,0-1.31.35-1.31.83,0,1.35,3.25.33,3.25,2.25,0,.87-.77,1.43-2.07,1.43-.73.02-1.45-.19-2.05-.62Z"/>
    <path class="st0" d="M279.3,290.36v5h-.65v-.91c-.37.64-1.06,1.02-1.8,1-1.07.1-2.01-.68-2.11-1.75-.01-.13-.01-.27,0-.4v-2.9h.68v2.83c0,1.07.55,1.61,1.5,1.61.9.04,1.66-.65,1.71-1.55,0-.09,0-.18,0-.27v-2.62l.68-.04Z"/>
    <path class="st0" d="M280.69,292.86c-.05-1.36,1.02-2.5,2.38-2.54.06,0,.13,0,.19,0,.8-.06,1.57.32,2,1l-.5.34c-.33-.48-.88-.75-1.46-.74-1.08.25-1.75,1.32-1.51,2.39.17.75.76,1.33,1.51,1.51.58.02,1.13-.26,1.46-.73l.5.34c-.44.67-1.2,1.05-2,1-1.36.06-2.51-1-2.57-2.37,0-.07,0-.14,0-.2Z"/>
    <path class="st0" d="M286,292.86c-.04-1.36,1.03-2.5,2.4-2.54.06,0,.12,0,.18,0,.8-.06,1.57.32,2,1l-.51.34c-.33-.48-.87-.76-1.45-.74-1.08.25-1.75,1.32-1.51,2.39.17.75.76,1.33,1.51,1.51.58.02,1.12-.26,1.45-.73l.51.34c-.44.67-1.2,1.05-2,1-1.37.06-2.52-1.01-2.58-2.38,0-.06,0-.13,0-.19Z"/>
    <path class="st0" d="M296.08,293.07h-4.18c.06,1.02.93,1.8,1.95,1.74.02,0,.03,0,.05,0,.58.01,1.14-.23,1.53-.66l.39.44c-1.01,1.06-2.69,1.09-3.75.08-.49-.47-.79-1.12-.81-1.81-.07-1.33.95-2.46,2.28-2.54.05,0,.11,0,.16,0,1.32-.02,2.41,1.03,2.43,2.34,0,.07,0,.13,0,.2-.04.06-.05.14-.05.21ZM291.9,292.56h3.54c0-.98-.79-1.77-1.77-1.77s-1.77.79-1.77,1.77Z"/>
    <path class="st0" d="M296.77,294.79l.31-.53c.52.37,1.14.57,1.78.56.95,0,1.34-.33,1.34-.82,0-1.3-3.25-.28-3.25-2.25,0-.82.71-1.43,2-1.43.62-.01,1.24.15,1.77.47l-.29.54c-.44-.29-.95-.44-1.48-.43-.9,0-1.3.35-1.3.83,0,1.35,3.24.33,3.24,2.25,0,.87-.76,1.43-2.06,1.43-.74.02-1.46-.19-2.06-.62Z"/>
    <path class="st0" d="M301.42,294.79l.31-.53c.52.37,1.14.57,1.78.56.95,0,1.34-.33,1.34-.82,0-1.3-3.25-.28-3.25-2.25,0-.82.71-1.43,2-1.43.62-.01,1.24.15,1.77.47l-.29.54c-.44-.29-.95-.44-1.48-.43-.9,0-1.3.35-1.3.83,0,1.35,3.24.33,3.24,2.25,0,.87-.76,1.43-2.06,1.43-.74.02-1.46-.19-2.06-.62Z"/>
    <path class="st0" d="M307.54,289.77v.59h1.54v.57h-1.52v4.43h-.68v-4.43h-.88v-.57h.89v-.62c-.07-.75.49-1.42,1.25-1.48.09,0,.18,0,.26,0,.36-.01.71.1,1,.31l-.23.51c-.21-.17-.47-.26-.74-.25-.59,0-.89.32-.89.94Z"/>
    <path class="st0" d="M314.5,290.36v5h-.65v-.91c-.37.64-1.06,1.02-1.8,1-1.07.1-2.01-.68-2.11-1.75-.01-.13-.01-.27,0-.4v-2.9h.68v2.83c0,1.07.55,1.61,1.5,1.61.9.04,1.66-.65,1.71-1.55,0-.09,0-.18,0-.27v-2.62l.68-.04Z"/>
    <path class="st0" d="M316.39,288.31h.68v7.05h-.68v-7.05Z"/>
    <path class="st3" d="M211.49,263.81h-4.23v-2h10.82v2h-4.23v10.75h-2.36v-10.75Z"/>
    <path class="st3" d="M229.21,269v5.58h-2.27v-5.28c0-1.73-.86-2.57-2.31-2.57-1.62,0-2.72,1-2.72,2.93v4.92h-2.27v-13.53h2.27v4.95c.86-.84,2.03-1.29,3.24-1.24,2.33-.04,4.06,1.29,4.06,4.24Z"/>
    <path class="st3" d="M240.24,268.86v5.7h-2.14v-1.19c-.73.93-1.88,1.43-3.06,1.31-2.22,0-3.63-1.22-3.63-2.91s1.1-2.89,4.05-2.89h2.54v-.15c0-1.33-.8-2.11-2.42-2.11-1.08-.02-2.14.34-3,1l-.89-1.65c1.2-.84,2.65-1.26,4.11-1.21,2.82-.04,4.44,1.29,4.44,4.1ZM238,271.51v-1.12h-2.35c-1.55,0-2,.58-2,1.29s.7,1.35,1.86,1.35c1.07.09,2.08-.52,2.49-1.52Z"/>
    <path class="st3" d="M252.73,269v5.58h-2.28v-5.28c0-1.73-.85-2.57-2.31-2.57-1.62,0-2.71,1-2.71,2.93v4.92h-2.28v-9.73h2.17v1.26c.86-.93,2.08-1.44,3.35-1.37,2.33-.02,4.06,1.31,4.06,4.26Z"/>
    <path class="st3" d="M259.59,270.39l-1.69,1.61v2.57h-2.28v-13.52h2.28v8.15l4.71-4.37h2.73l-4.06,4.08,4.44,5.65h-2.72l-3.41-4.17Z"/>
    <path class="st3" d="M281.32,264.83l-4.55,10.51c-.89,2.2-2.13,2.87-3.75,2.87-.94.02-1.87-.3-2.6-.89l.91-1.67c.45.43,1.05.67,1.67.67.8,0,1.28-.38,1.71-1.35l.17-.38-4.24-9.76h2.36l3.06,7.19,3.08-7.19h2.18Z"/>
    <path class="st3" d="M281.66,269.69c-.1-2.86,2.14-5.26,5-5.36,2.86-.1,5.26,2.14,5.36,5,.1,2.86-2.14,5.26-5,5.36-.06,0-.12,0-.19,0-2.7.15-5.01-1.92-5.16-4.62,0-.13,0-.25,0-.38ZM289.73,269.69c-.06-1.59-1.4-2.84-3-2.78-1.59.06-2.84,1.4-2.78,3,.06,1.55,1.33,2.77,2.88,2.78,1.57.04,2.87-1.21,2.9-2.77,0-.08,0-.15,0-.23Z"/>
    <path class="st3" d="M303.62,264.83v9.73h-2.17v-1.24c-.79.9-1.94,1.4-3.13,1.36-2.5,0-4.19-1.36-4.19-4.29v-5.56h2.28v5.25c0,1.76.83,2.6,2.27,2.6s2.66-1,2.66-2.93v-4.92h2.28Z"/>
    <path class="st3" d="M306.18,273.26c0-.78.64-1.41,1.42-1.4.02,0,.03,0,.05,0,.78,0,1.41.63,1.41,1.41s-.63,1.41-1.41,1.41c-.78.03-1.44-.59-1.47-1.37,0-.02,0-.03,0-.05ZM306.31,261.81h2.69l-.45,8.52h-1.81l-.43-8.52Z"/>
    <circle class="st3" cx="260.02" cy="216.56" r="26.18"/>
    <path class="st1" d="M272.91,205.51c.33.27-4.56,6.85-10.92,14.69l-3.86,4.68-.53.64-.56-.58c-5-5.13-8.37-8.93-8.13-9.17s4.05,3.15,9.17,8.12l-1.08.11,3.78-4.73c6.36-7.89,11.79-14.03,12.13-13.76Z"/>
    <path class="st3" d="M297.21,206c-.78-2.75-4.35-2.48-4.35-2.48l.09,1.91c2.07-.36,3.35,2.06,3.35,2.06l.91-1.49Z"/>
    <path class="st2" d="M221.37,211.78c-.77-2.75-4.35-2.49-4.35-2.49l.1,1.92c2.07-.36,3.35,2.06,3.35,2.06l.9-1.49Z"/>
    <path class="st2" d="M263.14,173.73c4.15,1.26,6.73-3.52,6.73-3.52l-2.52-1.44c-1.24,2.93-5.38,2.59-5.38,2.59l1.17,2.37Z"/>
    <path class="st3" d="M240.13,178.88c-1.93.21-2.16,2.63-2.16,2.63l1.29.15c0-1.42,1.77-2,1.77-2l-.9-.78Z"/>
    <path class="st2" d="M319.67,196.6c.28-1.92-2-2.75-2-2.75l-.47,1.21c1.38.35,1.51,2.21,1.51,2.21l.96-.67Z"/>
    <path class="st3" d="M251.39,153.61c.28-1.92-2-2.75-2-2.75l-.47,1.22c1.38.35,1.51,2.2,1.51,2.2l.96-.67Z"/>
    <path class="st3" d="M203.71,184.58c-.34,3,3.64,3.74,3.64,3.74l.72-2c-2.39-.22-2.73-3-2.73-3l-1.63,1.26Z"/>
    <path class="st3" d="M292.47,173.67c1.94.11,2.56-2.24,2.56-2.24l-1.25-.36c-.23,1.4-2.07,1.69-2.07,1.69l.76.91Z"/>
    <path class="st2" d="M303.06,181.57c-.52.15-1.06.2-1.6.15-.54.05-1.08,0-1.6-.15,1.06-.21,2.14-.21,3.2,0Z"/>
    <path class="st2" d="M304.76,177.22c.2,1.07.2,2.17,0,3.24-.21-1.07-.21-2.17,0-3.24Z"/>
    <path class="st2" d="M306.56,181.46c.52-.15,1.06-.2,1.6-.15.54-.05,1.08,0,1.6.15-1.06.21-2.14.21-3.2,0Z"/>
    <path class="st2" d="M304.87,185.82c-.21-1.07-.21-2.18,0-3.25.2,1.07.2,2.18,0,3.25Z"/>
    <path class="st2" d="M307.45,184c-.06.05-.37-.21-.69-.58s-.51-.73-.45-.78.38.2.69.58.52.67.45.78Z"/>
    <path class="st2" d="M307.3,179c.06.07-.15.38-.48.71s-.64.55-.7.49.15-.38.48-.71.64-.49.7-.49Z"/>
    <path class="st2" d="M303.64,180.27c-.06.07-.36-.09-.67-.35s-.51-.52-.46-.58.35.09.66.34.52.53.47.59Z"/>
    <path class="st2" d="M303.49,182.45c.07.05-.12.36-.42.69s-.59.54-.65.48.12-.37.42-.69.59-.54.65-.48Z"/>
    <path class="st3" d="M215.94,172.65c-1.06.21-2.14.21-3.2,0,.52-.15,1.06-.2,1.6-.15.54-.05,1.08,0,1.6.15Z"/>
    <path class="st3" d="M217.64,168.3c.21,1.07.21,2.18,0,3.25-.21-1.07-.21-2.18,0-3.25Z"/>
    <path class="st3" d="M219.45,172.55c1.06-.21,2.14-.21,3.2,0-1.06.21-2.14.21-3.2,0Z"/>
    <path class="st3" d="M217.75,176.9c-.21-1.07-.21-2.17,0-3.24.21,1.07.21,2.17,0,3.24Z"/>
    <path class="st3" d="M220.34,175c-.07.06-.38-.2-.69-.58s-.52-.72-.45-.78.37.21.69.58.51.78.45.78Z"/>
    <path class="st3" d="M220.19,170.1c.06.06-.16.38-.48.71s-.64.54-.7.48.15-.37.48-.7.64-.59.7-.49Z"/>
    <path class="st3" d="M216.52,171.36c-.05.06-.35-.09-.66-.35s-.52-.52-.46-.59.35.09.66.35.52.52.46.59Z"/>
    <path class="st3" d="M216.38,173.53c.06.06-.13.37-.42.7s-.59.54-.66.48.13-.37.42-.69.59-.55.66-.49Z"/>
    <path class="st0" d="M326.62,131.05c-2.35.26-4.71.34-7.07.26-2.36.08-4.72,0-7.06-.26,2.34-.26,4.7-.35,7.06-.26,2.36-.09,4.72,0,7.07.26Z"/>
    <path class="st0" d="M326.62,134c-2.35.26-4.71.35-7.07.26-2.36.09-4.72,0-7.06-.26,2.34-.26,4.7-.34,7.06-.26,2.36-.08,4.72,0,7.07.26Z"/>
    <path class="st0" d="M326.62,136.93c-2.35.26-4.71.35-7.07.26-2.36.09-4.72,0-7.06-.26,2.34-.26,4.7-.34,7.06-.26,2.36-.08,4.72,0,7.07.26Z"/>
    <rect class="st5" x="239.82" y="341.56" width="41.57" height="32.93" transform="translate(-99.46 615.81) rotate(-89.55)"/>
    <polygon class="st7" points="264.34 338.61 263.75 378.85 258.55 378.81 259.67 338.57 264.34 338.61"/>
    <polygon class="st2" points="225.38 338.3 244.27 338.45 277.2 338.71 244.24 343.04 243.96 378.7 225.07 378.55 225.38 338.3"/>
    <polygon class="st7" points="235.67 338.38 234.92 378.63 229.31 378.58 230.23 338.34 235.67 338.38"/>
    <path class="st2" d="M250.62,326.13c0,.26-.55.52-1.56.77-2.45.54-4.97.72-7.47.54-.56,0-1.14-.1-1.75-.19-.65-.09-1.29-.23-1.92-.41-.41-.13-.81-.3-1.19-.51-.5-.29-.93-.7-1.25-1.18-.34-.54-.53-1.17-.54-1.81,0-.47.05-.94.16-1.4.29-1.42.72-2.82,1.26-4.17.33-.75.73-1.46,1.21-2.12.25-.35.52-.69.81-1,.33-.34.7-.64,1.1-.89.46-.29.96-.49,1.49-.6.57-.11,1.15-.09,1.71.05.84.23,1.61.66,2.25,1.24,1.76,1.48,3.23,3.29,4.33,5.31.74,1.35,1.23,2.81,1.45,4.33.13,1.08,0,1.69-.24,1.74-.53.13-1.3-2-3.4-4.66-1.22-1.52-2.64-2.87-4.23-4-.29-.24-.63-.4-1-.49-.06-.02-.12-.02-.18,0-.1.04-.19.09-.28.15-.15.11-.29.23-.42.37-.15.17-.32.38-.47.59-.31.45-.58.93-.79,1.44-.45,1.15-.83,2.33-1.13,3.53-.05.17-.09.34-.1.52h-.1c-.12,0-.15.06-.07,0l.12-.09h0s.05.07.09.09c.15.1.31.18.47.24.48.18.97.32,1.47.44.51.14,1,.25,1.51.35,1,.2,1.93.34,2.8.46,1.75.23,3.21.39,4.22.58s1.63.53,1.64.78Z"/>
    <path class="st5" d="M249.94,326.43c-.09-.52,2.37-1.29,6.21-2.42,2.21-.63,4.37-1.41,6.48-2.32.5-.2.97-.46,1.41-.78.15-.13.22-.24.2-.23s0,.15-.05.08c-.06-.2-.14-.39-.23-.58l-.48-1c-.29-.62-.63-1.22-1-1.79-.33-.51-.72-.98-1.17-1.4-.21-.19-.43-.37-.66-.53-.19-.13-.39-.24-.6-.32-.31-.14-.67-.18-1-.09-.43.14-.83.37-1.16.67-1.71,1.42-3.22,3.07-4.5,4.89-2.21,3.14-2.79,5.59-3.34,5.51-.24,0-.42-.7-.33-1.91.16-1.71.64-3.37,1.42-4.9,1.13-2.3,2.65-4.38,4.51-6.14.67-.65,1.46-1.15,2.34-1.47,1.06-.36,2.2-.36,3.26,0,.48.17.94.4,1.37.68.39.25.76.53,1.11.84.69.62,1.3,1.32,1.8,2.1.46.71.88,1.46,1.23,2.23l.48,1.06c.23.48.4.99.49,1.51.12.75,0,1.51-.37,2.18-.3.54-.72,1-1.22,1.35-.7.47-1.45.85-2.25,1.12-2.33.84-4.75,1.42-7.21,1.73-4.12.56-6.68.41-6.74-.07Z"/>
    <rect class="st2" x="236.78" y="307.35" width="13.76" height="48.4" transform="translate(-89.79 572.6) rotate(-89.55)"/>
    <rect class="st5" x="252.25" y="309.79" width="13.76" height="43.75" transform="translate(-74.56 588.18) rotate(-89.55)"/>
    <polygon class="st7" points="267.62 324.87 267.31 338.69 262.21 338.59 262.57 324.83 267.62 324.87"/>
    <polygon class="st7" points="231.37 324.66 230.87 338.36 225.26 338.31 225.56 324.54 231.37 324.66"/>
    <rect class="st5" x="277.3" y="356.9" width="23.55" height="18.66" transform="translate(-79.41 652.42) rotate(-89.55)"/>
    <polygon class="st7" points="291.18 355.22 290.85 378.03 287.9 378.01 288.53 355.2 291.18 355.22"/>
    <polygon class="st2" points="269.1 355.05 279.81 355.13 298.47 355.28 279.79 357.74 279.63 377.94 268.93 377.86 269.1 355.05"/>
    <polygon class="st7" points="274.93 355.1 274.51 377.9 271.33 377.88 271.85 355.07 274.93 355.1"/>
    <path class="st2" d="M283.4,348.15c0,.35-1.22.77-3.36,1-1.31.1-2.63,0-3.91-.32-.61-.14-1.14-.5-1.51-1-.22-.35-.34-.74-.35-1.15,0-.29.03-.58.09-.86.17-.82.42-1.63.73-2.41.19-.44.43-.86.71-1.25.32-.46.73-.85,1.2-1.16.59-.38,1.31-.5,2-.34.51.15.98.41,1.37.76,1.01.87,1.85,1.92,2.46,3.1,1,2,.86,3.49.53,3.54s-.87-1.09-2.08-2.54c-.7-.84-1.5-1.58-2.39-2.21-.13-.11-.29-.19-.45-.23h0l-.07.05c-.17.14-.31.3-.43.48-.17.24-.31.5-.42.77-.26.65-.47,1.32-.63,2l-.06.23h-.31c-.07,0-.08,0,0,0,.07-.04.13-.1.18-.16l.06-.06h0c.07.05.14.09.22.12,1.04.35,2.12.6,3.21.75,1.9.29,3.21.52,3.21.89Z"/>
    <path class="st2" d="M283,348.33c-.07-.4,1.32-.93,3.46-1.64,1.22-.39,2.43-.85,3.6-1.37.25-.11.49-.24.71-.41.06-.05.06-.09,0,0-.05.09-.07.18-.07.28l-.37-.78c-.16-.34-.35-.68-.55-1-.17-.27-.37-.51-.6-.72-.17-.17-.37-.32-.59-.42-.1-.03-.21-.03-.31,0-.2.05-.39.16-.54.3-.95.77-1.81,1.66-2.55,2.64-1.29,1.69-1.71,3.05-2.12,3s-.66-1.66.38-4c.62-1.35,1.49-2.58,2.56-3.61.41-.41.9-.72,1.44-.92.67-.24,1.41-.24,2.08,0,.3.1.59.24.86.41.24.16.47.33.68.52.41.37.78.79,1.08,1.25.27.42.51.86.72,1.31l.27.61c.15.32.25.65.31,1,.08.51-.01,1.02-.26,1.47-.2.35-.47.65-.79.88-.42.29-.88.51-1.36.67-1.35.47-2.75.78-4.17.92-2.34.16-3.79-.02-3.87-.39Z"/>
    <rect class="st2" x="275.56" y="337.51" width="7.8" height="27.43" transform="translate(-73.95 627.92) rotate(-89.55)"/>
    <rect class="st5" x="284.34" y="338.89" width="7.8" height="24.79" transform="translate(-65.3 636.76) rotate(-89.55)"/>
    <polygon class="st7" points="293.04 347.44 292.87 355.27 289.97 355.21 290.18 347.42 293.04 347.44"/>
    <polygon class="st7" points="272.5 347.32 272.22 355.08 269.04 355.06 269.21 347.25 272.5 347.32"/>
  </g>
  <g id="freepik--Plant--inject-140">
    <path class="st3" d="M422.45,397.81c3.04,1.45,5.36,4.08,6.43,7.28,1.04,3.18,1.33,6.56.85,9.87-.72,6.4-4.36,12.86-8.27,18-5.39-4.7-6.63-12.91-7-17.11-.58-6.64,2.4-19,8-18"/>
    <path class="st3" d="M427.72,443.5c-.75-3.72.56-7.56,3.42-10.06,2.88-2.43,6.61-3.6,10.36-3.24,1.72.13,3.57.63,4.55,2,.86,1.4.88,3.16.07,4.59-.81,1.39-1.98,2.55-3.39,3.34-4.67,2.93-9.73,4.91-15,3.33"/>
    <path class="st0" d="M420.81,463.12c.03-.44.09-.88.19-1.31.17-.93.39-2.12.65-3.56.6-3.96,1.84-7.79,3.67-11.35,1.9-3.56,4.71-6.55,8.15-8.66,1.05-.62,2.16-1.11,3.32-1.47.41-.14.74-.19,1-.25s.34-.06.34,0c-5.38,1.74-9.84,5.58-12.36,10.64-1.8,3.53-3.06,7.3-3.75,11.2-.33,1.49-.6,2.7-.8,3.52-.1.42-.24.84-.41,1.24Z"/>
    <path class="st0" d="M421,407.42c.05.19.07.38.07.58,0,.42.06,1,.1,1.65.07,1.43.16,3.5.24,6.07.16,5.13.29,12.22.26,20s-.22,14.92-.44,20.05c-.1,2.57-.2,4.64-.29,6.07-.05.68-.08,1.22-.11,1.65s0,0,0,0c.07-.57-.1.37-.1,0v-1.66c0-1.49.08-3.55.14-6.07.13-5.13.27-12.21.31-20s-.05-14.91-.13-20c0-2.52-.07-4.59-.1-6.08v-1.65c0-.2.02-.41.05-.61Z"/>
    <path class="st3" d="M418.4,447.39c-1.33-7.87-6.36-14.62-13.52-18.13-1.8-.86-4.15-1.43-5.63-.09s-1.16,3.75-.43,5.62c3.24,7.9,10.91,13.08,19.45,13.13"/>
    <path class="st0" d="M405.75,435.33c.4.13.78.29,1.15.5.44.2.88.43,1.29.69.56.3,1.11.64,1.64,1,.66.44,1.29.91,1.89,1.42.7.57,1.37,1.18,2,1.82,1.45,1.48,2.73,3.12,3.81,4.89,1.05,1.79,1.89,3.69,2.5,5.67.27.86.48,1.74.64,2.63.15.77.26,1.55.32,2.33.1.72.06,1.37.09,1.94.03.49.03.98,0,1.47,0,.42-.05.83-.14,1.24-.11,0,.07-1.78-.24-4.61-.08-.77-.21-1.54-.37-2.3-.15-.82-.41-1.68-.67-2.58-.63-1.94-1.46-3.8-2.5-5.55-1.06-1.74-2.3-3.36-3.71-4.83-.61-.64-1.26-1.25-1.94-1.83-.62-.56-1.26-1-1.83-1.44-2.35-1.63-3.98-2.37-3.93-2.46Z"/>
  </g>
</svg>